<svg xmlns="http://www.w3.org/2000/svg" width="1024" height="1360" viewBox="0 0 1024 1360"><defs><linearGradient id="g" x1="0" y1="0" x2="0" y2="1"><stop offset="0" stop-color="#6D5EF7"/><stop offset="1" stop-color="#4338CA"/></linearGradient><clipPath id="tile"><rect x="232" y="140" width="560" height="560" rx="124"/></clipPath></defs><g clip-path="url(#tile)"><rect x="232" y="140" width="560" height="560" fill="url(#g)"/><g transform="translate(512 420) scale(0.5469) translate(-512 -500)"><path d="M300 780V220H540C660 220 735 290 735 392C735 483 677 545 590 566L750 780H618L474 596H412V780H300ZM412 512H522C592 512 625 473 625 398C625 336 592 305 522 305H412V512Z" fill="#FFFFFF"/></g></g><text x="512" y="920" text-anchor="middle" fill="#F5F1E8" font-family="Helvetica" font-size="104" font-weight="700" letter-spacing="-2">RunningGround</text><text x="512" y="1010" text-anchor="middle" fill="#AAB0B6" font-family="Helvetica" font-size="40" font-weight="500" letter-spacing="10">RUN. RANK. RETURN.</text></svg>